<?xml version="1.0" encoding="utf-8"?>
<!-- Generator: Adobe Illustrator 27.5.0, SVG Export Plug-In . SVG Version: 6.00 Build 0)  -->
<svg version="1.1" xmlns="http://www.w3.org/2000/svg" xmlns:xlink="http://www.w3.org/1999/xlink" x="0px" y="0px"
	 viewBox="0 0 500 500" style="enable-background:new 0 0 500 500;" xml:space="preserve">
<g id="OBJECTS">
	
	<path style="fill:#333;" d="M93.309,427.935c17.783,0,306.006,0,313.383,0c0-47.696,0-309.329,0-313.383h-151.38v32.978h11.408
		v-21.57h128.564v74.871h-64.709v11.408h64.709v10.163h-64.709v64.708v11.408v10.161h-10.161V190.669h64.708v-11.408
		c-27.495,0-54.99,0-82.485,0c-15.381,0-30.763,0-46.142,0c-2.246,0-33.767,0-33.767,0v21.569h-86.278v76.117h64.708v10.161h-21.569
		v21.569h-43.139v11.408h43.139v21.57h64.709v65.579h11.408v-65.579h64.709v-11.408h-64.709h-11.408c0,0-53.302,0-53.302-0.001
		c0-10.576,0-21.153,0-31.73h10.162v21.57h32.979V308.68h-21.57c0-24.957,0-49.913,0-74.871c24.957,0,49.914,0,74.871,0v74.871
		h-43.14v11.408h54.547v-97.686h-21.569v-21.57h-11.408v21.57h-64.709v21.569h-31.73v-10.162h21.568v-11.408h-32.977v32.977h43.139
		v10.162h-53.301v-53.301h86.279v-21.569h10.161v21.569h11.408v-21.569h31.731v21.569h11.407v-21.569h10.163v129.418h32.977v-21.569
		h10.162v53.301h-10.162v-21.569h-11.408v21.569v11.408v10.161h-10.161h-11.407c-10.578,0-21.155,0-31.732,0v-10.161h43.14v-11.408
		h-54.548v32.978h21.57v21.57h11.407v-21.57h10.163v21.57h32.977v-11.408h-21.569v-10.162h21.569v-21.569h10.162v44.01h32.977
		v-55.418h-11.408v44.011h-10.161v-32.603v-11.408v-64.709h-21.569v-53.3h53.301v96.44h-10.162V265.54h-21.569v-10.162h21.569
		v-11.407h-32.977v32.978h21.568v64.709h21.57v74.87h-118.01v-21.569h-11.408v21.569h-31.73v-43.139h-54.548v32.978h32.978v-11.408
		h-21.57v-10.161h31.732v31.73h-53.301v-10.161v-11.408v-31.731h64.709v-11.408h-64.709v-21.569c0,0-11.408,0-11.408,0.001
		c0,21.569,0,43.139,0,64.708h-10.162v-64.709h-32.978v76.117h11.407v-64.709h10.163v64.709h21.569v10.161h-53.301v-96.439h21.568
		V308.68h-21.568V125.96h10.161v172.557h54.548v-11.408h-43.141V125.96h31.732v43.14h32.977v-32.977h-11.407v21.569h-10.161V125.96
		h31.73v53.301h-53.301v-43.139h-11.407v54.546h76.116V125.96h21.178v43.14h151.379v-32.978h-108.24v11.408h96.832v10.163H245.15
		v-43.14c-37.132,0-142.031,0-151.842,0V427.935z"/>
</g>
</svg>
